<svg width="258" height="443" viewBox="0 0 258 443" fill="none" xmlns="http://www.w3.org/2000/svg">
<path d="M111.25 299.167H156.75V371.5H193.453L134 442.387L74.5466 371.5H111.25V299.167Z" fill="black"/>
<path d="M258 207.35C258 212.784 254.99 217.503 250.403 219.934L137.17 283.426C134.877 285.142 132.01 286 129 286C125.99 286 123.123 285.142 120.83 283.426L7.59667 219.934C3.01 217.503 0 212.784 0 207.35V78.65C0 73.216 3.01 68.497 7.59667 66.066L120.83 2.574C123.123 0.858001 125.99 0 129 0C132.01 0 134.877 0.858001 137.17 2.574L250.403 66.066C254.99 68.497 258 73.216 258 78.65V207.35ZM129 30.745L43.5733 78.65L129 126.555L214.427 78.65L129 30.745ZM28.6667 198.913L114.667 247.247V151.294L28.6667 103.103V198.913ZM229.333 198.913V103.103L143.333 151.294V247.247L229.333 198.913Z" fill="black"/>
</svg>
